<svg width="1314" height="298" viewBox="0 0 1314 298" fill="none" xmlns="http://www.w3.org/2000/svg">
<path d="M960.11 0C990.718 0 1015.68 9.38141 1036.43 26.5267C1058.29 44.5974 1071.79 74.2576 1076.05 104.905H1025.46C1017.44 67.3299 993.167 47.34 960.111 47.34C913.992 47.34 888.287 86.5186 888.287 148.957C888.287 211.395 913.995 251.14 960.11 250.575C992.987 250.171 1018.36 229.034 1026.33 188.544H1077.15C1072.08 222.993 1060 251.268 1037.24 270.98C1016.46 288.98 990.753 297.958 960.11 297.915C882.977 297.915 836.866 237.108 836.866 148.958C836.866 60.8074 882.977 0 960.11 0Z" fill="#FFFFFF"/>
<path d="M0 291.79V6.11795H51.4203V244.451H186.024V291.79H0Z" fill="#FFFFFF"/>
<path fill-rule="evenodd" clip-rule="evenodd" d="M381.092 244.862L345.998 217.925L345.997 217.923C329.674 244.042 312.942 255.471 286.823 255.471C257.444 255.471 238.264 235.882 233.77 201.604H388.442V183.644C388.442 115.49 346.815 69.3754 286.823 69.3754C226.016 69.3754 186.024 114.673 186.024 183.644C186.024 252.616 225.198 297.915 286.823 297.915C328.045 297.915 361.506 277.918 381.092 244.862ZM286.823 111.817C316.62 111.817 336.204 129.773 339.879 163.646H233.77C235.81 132.223 257.026 111.817 286.823 111.817Z" fill="#FFFFFF"/>
<path fill-rule="evenodd" clip-rule="evenodd" d="M607.074 6.11864V291.791H559.317V274.653C546.26 288.934 524.223 297.912 500.962 297.912C442.606 297.912 403.02 251.795 403.02 183.641C403.02 115.487 442.608 69.3754 500.965 69.3754C525.043 69.3754 545.043 76.724 558.099 89.371V6.11864H607.074ZM558.098 164.465C558.098 134.673 537.693 114.676 506.678 114.676C472.393 114.676 451.989 140.796 451.989 183.644C451.989 226.491 472.394 252.615 506.678 252.615C537.694 252.615 558.098 232.21 558.098 202.416V164.465Z" fill="#FFFFFF"/>
<path d="M732.646 256.693C697.147 256.693 674.294 239.964 668.175 210.989L624.51 220.781C628.993 244.043 641.239 262.816 660.421 277.101C680.008 290.976 704.084 297.914 732.647 297.914C790.195 297.914 826.106 271.795 826.106 229.76C826.106 190.992 801.619 171.809 743.258 162.424C695.107 154.262 683.683 149.366 683.683 135.897C683.683 121.612 700.005 110.188 721.227 110.188C747.75 110.188 769.376 125.696 775.504 148.139L818.351 135.898C809.374 97.9427 767.337 69.3747 721.226 69.3747C673.073 69.3747 637.564 97.5324 637.564 136.711C637.564 173.032 661.238 191.398 719.997 200.785C768.155 208.95 780.399 215.476 780.399 230.984C780.399 247.31 763.663 256.693 732.646 256.693Z" fill="#FFFFFF"/>
<path d="M1087.47 236.698H1226.22L1226.23 291.792H1277.24V236.698H1313.15V189.357H1277.24V118.346H1226.22V189.357H1149.91C1197.66 140.793 1229.9 78.3544 1240.91 6.11943H1188.68C1182.56 42.036 1171.54 73.8639 1155.62 102.026C1140.12 130.183 1117.27 158.751 1087.47 188.544V236.698Z" fill="#FFFFFF"/>
</svg>
